<svg width="24" height="24" viewBox="0 0 24 24" fill="none" xmlns="http://www.w3.org/2000/svg">
<g clip-path="url(#clip0_969_14286)">
<g clip-path="url(#clip1_969_14286)">
<mask id="mask0_969_14286" style="mask-type:luminance" maskUnits="userSpaceOnUse" x="0" y="0" width="24" height="24">
<path d="M24 0H0V24H24V0Z" fill="white"/>
</mask>
<g mask="url(#mask0_969_14286)">
<path d="M10.4977 0.5857C8.67926 0.800254 6.93195 1.41942 5.38412 2.39771C3.06627 3.84071 1.3343 6.05788 0.49532 8.65611C0.2861 9.34153 0.135689 10.0435 0.04572 10.7545C-0.01524 11.5846 -0.01524 12.418 0.04572 13.2481C0.33965 15.5251 1.29869 17.6649 2.8028 19.3995C4.30691 21.1342 6.28927 22.3866 8.50172 23.0001C9.22053 23.2008 9.95398 23.3447 10.6953 23.4305C11.5631 23.4888 12.4339 23.4888 13.3017 23.4305C16.0648 23.1549 18.6507 21.9431 20.6305 19.9961C21.9562 18.7044 22.943 17.1058 23.5033 15.3417C23.8482 14.2609 24.0151 13.1312 23.9977 11.9969C24.0157 11.2361 23.9431 10.4758 23.7817 9.73209C23.3216 7.66144 22.3077 5.7547 20.8482 4.21548C19.3888 2.67626 17.5386 1.56242 15.4953 0.992926C14.7765 0.792261 14.0431 0.648332 13.3017 0.562506C12.369 0.503346 11.4333 0.51139 10.5017 0.58653L10.4977 0.5857ZM13.5209 5.02012C13.8167 5.08435 14.0906 5.22436 14.3159 5.42647C14.5411 5.62858 14.7099 5.88583 14.8057 6.17291C14.8923 6.52143 14.8611 6.88877 14.7169 7.21768C14.5616 7.49434 14.3386 7.72709 14.0689 7.89415C13.7991 8.0612 13.4914 8.15711 13.1745 8.17291C12.8729 8.21838 12.5645 8.17829 12.2845 8.05723C12.0045 7.93618 11.764 7.739 11.5905 7.48809C11.4172 7.237 11.3178 6.94232 11.3037 6.63755C11.2896 6.33279 11.3612 6.03018 11.5105 5.76412C11.7007 5.5198 11.9345 5.31284 12.2001 5.15372C12.6154 4.96723 13.0799 4.92036 13.5241 5.02012H13.5209ZM12.1145 9.80972C12.3977 9.85796 12.6661 9.97024 12.8993 10.138C13.1325 10.3058 13.3243 10.5245 13.4601 10.7777C13.6153 11.0737 13.6153 11.0825 13.6097 11.7057C13.6049 12.4257 13.6097 12.4049 13.0497 14.3065C12.7392 15.1268 12.5421 15.9857 12.4641 16.8593C12.4641 17.5233 12.6657 17.7289 13.3697 17.7689C13.7796 17.7821 14.1883 17.718 14.5745 17.5801C14.6441 17.5529 14.6441 17.5841 14.5657 17.9001C14.5394 18.0314 14.4987 18.1594 14.4441 18.2817C13.8175 18.542 13.1739 18.7594 12.5177 18.9321C12.0143 19.0131 11.5012 19.0131 10.9977 18.9321C10.6512 18.8735 10.3265 18.7241 10.0564 18.4993C9.78634 18.2745 9.58061 17.9822 9.46012 17.6521C9.38836 17.1889 9.39783 16.7168 9.48812 16.2569C9.52972 16.0457 9.75452 15.2393 9.98252 14.4633C10.2924 13.6288 10.4941 12.758 10.5825 11.8721C10.5825 11.3513 10.4377 11.0961 10.1025 11.0065C9.66424 10.9276 9.21378 10.9489 8.78492 11.0689C8.67032 11.1166 8.54817 11.1437 8.42412 11.1489C8.472 10.8963 8.55522 10.6518 8.67132 10.4225C9.17845 10.217 9.69626 10.0389 10.2225 9.88892C10.8358 9.71136 11.4828 9.6839 12.1089 9.80889L12.1145 9.80972Z" fill="#8094AE"/>
</g>
</g>
</g>
<defs>
<clipPath id="clip0_969_14286">
<rect width="24" height="24" fill="white"/>
</clipPath>
<clipPath id="clip1_969_14286">
<rect width="24" height="24" fill="white"/>
</clipPath>
</defs>
</svg>
