<svg width="24" height="24" viewBox="0 0 24 24" fill="none" xmlns="http://www.w3.org/2000/svg">
<g clip-path="url(#clip0_969_957)">
<g clip-path="url(#clip1_969_957)">
<mask id="mask0_969_957" style="mask-type:luminance" maskUnits="userSpaceOnUse" x="0" y="0" width="24" height="24">
<path d="M24 0H0V24H24V0Z" fill="white"/>
</mask>
<g mask="url(#mask0_969_957)">
<path d="M1.57077 0.0684984C1.35261 0.174961 1.17855 0.354392 1.07877 0.575699C0.992375 0.772499 0.984375 1.0117 0.984375 12.0157V23.2557L1.10197 23.4957C1.17538 23.6427 1.28325 23.7698 1.41637 23.8661C1.58917 23.9877 1.64598 24.0029 1.99798 24.0029C2.34998 24.0029 2.39797 23.9893 2.58437 23.8621C2.70777 23.7667 2.81269 23.6496 2.89398 23.5165L2.99798 23.3109V13.0021L3.31797 12.8149C4.14879 12.3551 5.04625 12.0277 5.97798 11.8445C6.96223 11.6788 7.9644 11.647 8.95717 11.7501C9.5841 11.8261 10.2038 11.9532 10.81 12.1301C11.4049 12.3137 12.0187 12.4297 12.6396 12.4757C15.2524 12.6485 17.71 11.5845 20.3612 9.1397C21.2638 8.28493 22.0822 7.34541 22.8052 6.3341C23.0308 5.9965 23.0404 5.9733 23.0212 5.7109C23.0257 5.57232 22.9864 5.43584 22.9088 5.32092C22.8313 5.206 22.7194 5.1185 22.5892 5.0709L22.3692 4.9589L21.678 5.0805C19.2002 5.5392 16.6425 5.26536 14.318 4.2925C13.5659 3.96029 12.8465 3.55855 12.1692 3.0925C10.2543 1.80797 8.02247 1.07585 5.71878 0.976499C4.8607 0.925809 4.00008 0.936771 3.14357 1.0093C2.99878 1.0381 2.99878 1.0381 2.99878 0.849298C2.97773 0.69362 2.92054 0.54503 2.83177 0.415421C2.743 0.285811 2.62513 0.178782 2.48758 0.102899C2.19733 -0.0240984 1.87017 -0.0383608 1.56998 0.0628984L1.57077 0.0684984Z" fill="#8094AE"/>
</g>
</g>
</g>
<defs>
<clipPath id="clip0_969_957">
<rect width="24" height="24" fill="white"/>
</clipPath>
<clipPath id="clip1_969_957">
<rect width="24" height="24" fill="white"/>
</clipPath>
</defs>
</svg>
