<svg width="24" height="24" viewBox="0 0 24 24" fill="none" xmlns="http://www.w3.org/2000/svg">
<g clip-path="url(#clip0_969_216)">
<mask id="mask0_969_216" style="mask-type:luminance" maskUnits="userSpaceOnUse" x="0" y="0" width="24" height="24">
<path d="M24 0H0V24H24V0Z" fill="white"/>
</mask>
<g mask="url(#mask0_969_216)">
<path d="M11.1211 0.610192C10.716 0.704133 10.3355 0.882901 10.0045 1.1347C9.67355 1.38651 9.39974 1.70562 9.20115 2.07099C8.99456 2.49874 8.90381 2.9732 8.93795 3.44699C8.9651 3.78486 8.9201 4.12464 8.80595 4.44379C8.59155 4.61659 8.50915 4.90539 8.50915 5.51499C8.50065 5.78729 8.53273 6.05934 8.60435 6.32219C8.74435 6.58539 9.10755 6.95659 9.23075 6.95659C9.28915 6.95659 9.42835 7.14699 9.55075 7.38539C9.88387 8.00817 10.3908 8.5207 11.0099 8.86059C11.3401 8.99634 11.6939 9.06544 12.0508 9.06393C12.4078 9.06242 12.7609 8.99032 13.0899 8.85179C13.6654 8.54366 14.1381 8.07399 14.4499 7.50059C14.5824 7.26351 14.7586 7.05368 14.9692 6.88219C15.4139 6.61019 15.5219 6.32939 15.5219 5.48139C15.5219 4.78859 15.5059 4.70699 15.3243 4.52539C15.1428 4.34379 15.1267 4.24459 15.0931 3.39659C15.1389 2.93452 15.0532 2.46892 14.8459 2.05339C14.5652 1.50309 14.0911 1.07578 13.5147 0.853393C13.1067 0.647774 12.6529 0.549484 12.1963 0.567792C11.8382 0.54678 11.4787 0.561788 11.1235 0.612592L11.1211 0.610192Z" fill="#8094AE"/>
<path d="M5.5632 8.34348C4.9693 8.51981 4.45776 8.90217 4.12049 9.42185C3.78323 9.94153 3.64236 10.5645 3.7232 11.1787C3.7232 11.5907 3.6896 11.9043 3.6432 11.9043C3.4784 11.9043 3.3128 12.3987 3.3128 12.9099C3.2846 13.1611 3.32126 13.4154 3.4193 13.6485C3.51734 13.8815 3.67347 14.0855 3.8728 14.2411C4.0819 14.3933 4.25391 14.5907 4.376 14.8187C4.52697 15.0868 4.70961 15.3358 4.92 15.5603C5.05254 15.6777 5.15116 15.8286 5.2056 15.9971C5.1968 16.2443 4.2 16.9123 3.2056 17.3403C2.42679 17.5815 1.69589 17.9565 1.0456 18.4483C0.82332 19.2379 0.644649 20.0391 0.5104 20.8483C0.276 22.0627 0.0655997 23.1523 0.0407997 23.2483L0 23.4387H12C19.6408 23.4387 24 23.4139 24 23.3587C24 23.2435 23.1008 18.6523 23.044 18.4715C22.3471 17.9457 21.5612 17.5495 20.724 17.3019C19.7928 16.9147 18.884 16.2803 18.884 16.0163C18.9496 15.8111 19.0587 15.6225 19.204 15.4635C19.3862 15.2417 19.549 15.0045 19.6904 14.7547C19.8131 14.5538 19.9724 14.3777 20.16 14.2355C20.556 13.9635 20.6952 13.6091 20.6952 12.8507C20.6952 12.2907 20.6704 12.1995 20.4888 12.0187C20.3072 11.8379 20.2824 11.7555 20.2824 11.0875C20.2834 10.7035 20.2418 10.3207 20.1584 9.94588C20.0433 9.6276 19.865 9.33593 19.6341 9.08844C19.4033 8.84095 19.1247 8.64278 18.8152 8.50588C18.3588 8.25263 17.8315 8.15703 17.3152 8.23388C16.8365 8.16377 16.3478 8.24135 15.9144 8.45628C15.4153 8.65026 14.994 9.00319 14.7155 9.46054C14.437 9.9179 14.3168 10.4542 14.3736 10.9867C14.3776 11.2956 14.3388 11.6036 14.2584 11.9019C14.0984 11.9019 13.9384 12.4123 13.9384 12.9075C13.9038 13.1675 13.9416 13.432 14.0476 13.6719C14.1536 13.9119 14.3237 14.1179 14.5392 14.2675C14.7152 14.3496 14.8519 14.4976 14.92 14.6795C15.0537 14.945 15.2257 15.1895 15.4304 15.4051C15.6088 15.5728 15.7469 15.7788 15.8344 16.0075C15.8344 16.2635 14.8536 16.9139 13.8344 17.3507C13.324 17.5651 12.7144 17.8371 12.4832 17.9603L12.0464 18.1747L11.4864 17.9171C11.1736 17.7771 10.5552 17.5051 10.1016 17.3147C9.2272 16.9435 8.1728 16.2435 8.1648 16.0211C8.25131 15.8239 8.37426 15.6447 8.5272 15.4931C8.72585 15.2804 8.89509 15.042 9.0304 14.7843C9.14122 14.5789 9.29813 14.402 9.4888 14.2675C9.9176 13.9867 10.0664 13.6275 10.0664 12.8667C10.0664 12.3067 10.0416 12.2075 9.8688 12.0347C9.696 11.8619 9.6712 11.7539 9.6376 10.9467C9.6669 10.4951 9.5787 10.0436 9.3816 9.63628C9.09929 9.10598 8.64226 8.68964 8.088 8.45788C7.27451 8.16612 6.39166 8.1279 5.556 8.34828L5.5632 8.34348Z" fill="#8094AE"/>
</g>
</g>
<defs>
<clipPath id="clip0_969_216">
<rect width="24" height="24" fill="white"/>
</clipPath>
</defs>
</svg>
