<svg width="24" height="24" viewBox="0 0 24 24" fill="none" xmlns="http://www.w3.org/2000/svg">
<g clip-path="url(#clip0_969_11888)">
<g clip-path="url(#clip1_969_11888)">
<mask id="mask0_969_11888" style="mask-type:luminance" maskUnits="userSpaceOnUse" x="0" y="0" width="24" height="24">
<path d="M24 0H0V24H24V0Z" fill="white"/>
</mask>
<g mask="url(#mask0_969_11888)">
<path d="M11.1569 0.709082C9.26251 0.898243 7.48503 1.71291 6.10507 3.02451C4.7251 4.3361 3.82123 6.06992 3.53612 7.95228C3.49852 8.20588 3.46572 8.44028 3.46572 8.46748C3.46572 8.49468 3.30572 8.52828 3.02972 8.54268C2.38517 8.58716 1.76797 8.82042 1.25511 9.21335C0.742244 9.60629 0.356409 10.1415 0.145721 10.7523L0.0193211 11.0947L0.00572106 12.6947C-0.0134789 14.5283 -0.00307894 14.6083 0.343321 15.3123C0.563865 15.7618 0.887151 16.153 1.28701 16.4543C1.68687 16.7556 2.15206 16.9586 2.64492 17.0467C3.31003 17.2146 4.00914 17.1902 4.66092 16.9763C4.98092 16.7795 4.96572 16.9571 4.96572 12.8875C4.96572 8.54028 4.99452 8.13628 5.32172 7.10668C5.69245 5.96219 6.34921 4.93128 7.2298 4.11159C8.11038 3.29191 9.18564 2.71059 10.3537 2.42268C11.7577 2.08239 13.2325 2.18499 14.5758 2.71641C15.9191 3.24783 17.065 4.182 17.8561 5.39068C18.191 5.93131 18.4662 6.50668 18.6769 7.10668C19.0049 8.13628 19.0329 8.54188 19.0329 12.8979C19.0329 17.0715 19.0089 16.7995 19.4129 17.0155C19.6145 17.1235 19.6425 17.1283 20.4865 17.1051C20.9057 17.1315 21.3263 17.0839 21.7289 16.9643C22.2371 16.8019 22.6976 16.517 23.0697 16.1347C23.3125 15.9084 23.5085 15.6365 23.6465 15.3347C24.0025 14.6075 24.0121 14.5347 23.9937 12.6947L23.9793 11.0947L23.8529 10.7523C23.6405 10.1431 23.2541 9.60953 22.7415 9.21777C22.2288 8.82602 21.6125 8.59324 20.9689 8.54828C20.6929 8.53388 20.5329 8.50668 20.5329 8.47308C20.4775 7.9829 20.388 7.49718 20.2649 7.01948C19.7413 5.05863 18.538 3.34763 16.8697 2.19178C15.2014 1.03593 13.1767 0.51044 11.1569 0.709082Z" fill="#8094AE"/>
<path d="M3.1538 18.1011C3.3292 18.9199 3.68656 19.6887 4.1994 20.3507C4.70743 20.9718 5.35135 21.468 6.0815 21.8009C6.81164 22.1338 7.6085 22.2945 8.4106 22.2707H8.7858V21.3907L8.1762 21.3619C7.35731 21.3544 6.55865 21.1065 5.8794 20.6491C4.98496 20.0597 4.34277 19.1576 4.0786 18.1195L4.0322 17.9315L3.5754 17.9259L3.125 17.9219L3.1538 18.1011Z" fill="#8094AE"/>
<path d="M10.589 20.3731C10.3759 20.4483 10.1816 20.569 10.0197 20.7267C9.85782 20.8845 9.73215 21.0756 9.65144 21.2867C9.57398 21.4816 9.54648 21.6928 9.57144 21.9011C9.5809 22.1797 9.6684 22.45 9.82399 22.6812C9.97957 22.9125 10.197 23.0954 10.4514 23.2091L10.7082 23.3315H13.2874L13.5474 23.2099C13.8019 23.0962 14.0193 22.9133 14.1749 22.682C14.3305 22.4508 14.418 22.1805 14.4274 21.9019C14.4495 21.6122 14.3862 21.3224 14.2455 21.0682C14.1048 20.814 13.8927 20.6066 13.6354 20.4715L13.3818 20.3307L12.069 20.3211C11.574 20.282 11.0761 20.2994 10.585 20.3731H10.589Z" fill="#8094AE"/>
</g>
</g>
</g>
<defs>
<clipPath id="clip0_969_11888">
<rect width="24" height="24" fill="white"/>
</clipPath>
<clipPath id="clip1_969_11888">
<rect width="24" height="24" fill="white"/>
</clipPath>
</defs>
</svg>
