<svg width="24" height="24" viewBox="0 0 24 24" fill="none" xmlns="http://www.w3.org/2000/svg">
<g clip-path="url(#clip0_969_5861)">
<mask id="mask0_969_5861" style="mask-type:luminance" maskUnits="userSpaceOnUse" x="0" y="0" width="24" height="24">
<path d="M24 0H0V24H24V0Z" fill="white"/>
</mask>
<g mask="url(#mask0_969_5861)">
</g>
<g clip-path="url(#clip1_969_5861)">
<mask id="mask1_969_5861" style="mask-type:luminance" maskUnits="userSpaceOnUse" x="0" y="0" width="24" height="24">
<path d="M24 0H0V24H24V0Z" fill="white"/>
</mask>
<g mask="url(#mask1_969_5861)">
<path d="M17.8298 2.8959C20.9954 4.4959 23.6106 5.8159 23.6322 5.8375C23.6538 5.8591 22.7002 6.3623 21.5154 6.9575L19.3554 8.0447L13.8106 5.08469C10.7626 3.45589 8.21061 2.09028 8.13701 2.04468C8.00821 1.96468 8.05061 1.93749 9.95861 0.983887C11.0306 0.442287 11.945 0.00390625 11.989 0.00390625C12.033 0.00390625 14.6642 1.3031 17.8298 2.8959Z" fill="#8091A5"/>
<path d="M10.3435 6.70895C14.7747 9.07695 15.9435 9.72574 15.8835 9.77374C15.8403 9.80574 14.9459 10.2665 13.8971 10.7921L11.9899 11.7569L6.29467 8.89615C3.16107 7.32095 0.530663 5.98654 0.444263 5.93614L0.289062 5.83934L2.44266 4.76735C3.62106 4.17215 4.62347 3.69055 4.65547 3.69535C4.68747 3.70015 7.25707 5.05295 10.3435 6.70895Z" fill="#8091A5"/>
<path d="M23.9805 12.2719L23.9637 18.1703L18.1781 21.0847C14.9957 22.6847 12.3757 23.9991 12.3493 23.9991C12.3229 23.9991 12.3125 21.3527 12.3125 18.1175V12.2399L14.2677 11.2599C15.3445 10.7247 16.2341 10.2847 16.2541 10.2847C16.2741 10.2847 16.2805 11.2543 16.2805 12.4383V14.5983L17.1269 13.7519L17.9677 12.9111H19.7085V8.51589L21.8517 7.4439L23.9909 6.37109L23.9805 12.2719Z" fill="#8091A5"/>
<path d="M5.8407 9.30852L11.6695 12.2397V18.1173C11.6695 21.3533 11.6527 23.9997 11.6327 23.9997C11.5895 23.9997 0.0879114 18.2141 0.0279114 18.1653C0.00631144 18.1437 -0.00410457 15.4813 0.00149543 12.2509L0.0183167 6.37891L5.8407 9.30852Z" fill="#8091A5"/>
</g>
</g>
</g>
<defs>
<clipPath id="clip0_969_5861">
<rect width="24" height="24" fill="white"/>
</clipPath>
<clipPath id="clip1_969_5861">
<rect width="24" height="24" fill="white"/>
</clipPath>
</defs>
</svg>
