<svg width="24" height="24" viewBox="0 0 24 24" fill="none" xmlns="http://www.w3.org/2000/svg">
<g clip-path="url(#clip0_969_9163)">
<mask id="mask0_969_9163" style="mask-type:luminance" maskUnits="userSpaceOnUse" x="0" y="0" width="24" height="24">
<path d="M24 0H0V24H24V0Z" fill="white"/>
</mask>
<g mask="url(#mask0_969_9163)">
<g clip-path="url(#clip1_969_9163)">
<mask id="mask1_969_9163" style="mask-type:luminance" maskUnits="userSpaceOnUse" x="0" y="0" width="24" height="24">
<path d="M24 0H0V24H24V0Z" fill="white"/>
</mask>
<g mask="url(#mask1_969_9163)">
<path d="M11.6061 0.072024C11.4997 0.111224 8.91488 1.80482 5.85808 3.84562C-0.180315 7.87202 0.098084 7.65842 0.018084 8.25122C-0.00257731 8.40738 0.00799974 8.56608 0.0492005 8.71811C0.0904013 8.87014 0.161404 9.01247 0.258084 9.13682C0.355061 9.26089 0.47572 9.36445 0.613054 9.44149C0.750387 9.51854 0.901659 9.56753 1.05808 9.58562H1.22688V16.3424C1.22688 22.9592 1.22688 23.1104 1.33888 23.3176C1.49446 23.6051 1.75094 23.8248 2.05888 23.9344C2.36688 24.0208 21.6109 24.0208 21.9189 23.9344C22.2268 23.8248 22.4833 23.6051 22.6389 23.3176C22.7669 23.1096 22.7669 22.9584 22.7669 16.376V9.65602L22.9853 9.61682C23.3026 9.55187 23.5823 9.36626 23.7654 9.09913C23.9485 8.83199 24.0207 8.50419 23.9669 8.18482C23.8805 7.66642 24.0229 7.77042 18.0853 3.80562C15.0293 1.77042 12.4389 0.0824232 12.3325 0.0456232C12.0945 -0.0276029 11.8389 -0.0194401 11.6061 0.0688227V0.072024ZM13.2541 7.42322C14.0478 7.64097 14.7711 8.06149 15.3531 8.64344C15.935 9.22539 16.3555 9.94875 16.5733 10.7424C16.706 11.1553 16.7574 11.59 16.7245 12.0224C16.7432 12.8636 16.6025 13.7007 16.3101 14.4896C15.6525 16.3248 14.6366 18.0108 13.3213 19.4496C12.7213 20.1336 12.4349 20.3184 11.9981 20.3184C11.5613 20.3184 11.2637 20.1272 10.7021 19.488C8.88954 17.6272 7.69499 15.2526 7.28128 12.688C7.1959 12.0286 7.24737 11.3587 7.43248 10.72C7.69101 9.81157 8.21104 8.99923 8.92783 8.38415C9.64463 7.76906 10.5265 7.37841 11.4637 7.26082C12.0655 7.21682 12.6704 7.27086 13.2549 7.42082L13.2541 7.42322Z" fill="#8094AE"/>
<path d="M11.2501 9.69334C10.8907 9.81474 10.5646 10.0184 10.2978 10.2881C10.0309 10.5579 9.83082 10.8862 9.71334 11.2469C9.59596 11.6076 9.56442 11.9907 9.62123 12.3657C9.67803 12.7407 9.82162 13.0972 10.0405 13.4069C10.2678 13.7134 10.5636 13.9624 10.9044 14.134C11.2452 14.3055 11.6214 14.3949 12.0029 14.3949C12.3845 14.395 12.7607 14.3056 13.1015 14.1341C13.4423 13.9625 13.7381 13.7135 13.9653 13.4069C14.334 12.884 14.4835 12.2375 14.3819 11.6058C14.2802 10.974 13.9355 10.4071 13.4213 10.0261C13.1079 9.81066 12.7498 9.6688 12.3738 9.61117C11.9979 9.55354 11.6137 9.58163 11.2501 9.69334Z" fill="#8094AE"/>
</g>
</g>
</g>
</g>
<defs>
<clipPath id="clip0_969_9163">
<rect width="24" height="24" fill="white"/>
</clipPath>
<clipPath id="clip1_969_9163">
<rect width="24" height="24" fill="white"/>
</clipPath>
</defs>
</svg>
