<svg width="24" height="24" viewBox="0 0 24 24" fill="none" xmlns="http://www.w3.org/2000/svg">
<g clip-path="url(#clip0_969_4124)">
<g clip-path="url(#clip1_969_4124)">
<mask id="mask0_969_4124" style="mask-type:luminance" maskUnits="userSpaceOnUse" x="0" y="0" width="24" height="24">
<path d="M24 0H0V24H24V0Z" fill="white"/>
</mask>
<g mask="url(#mask0_969_4124)">
<path d="M4.21094 10.4825V18.9345L4.38854 18.9673C4.54785 18.9861 4.70813 18.9954 4.86854 18.9953C5.87381 19.0405 6.87168 19.1899 7.84614 19.4409C9.3371 19.818 10.7468 20.4638 12.0061 21.3466L12.6997 21.8114V4.85134L12.1749 4.51375C10.4857 3.40252 8.59207 2.63885 6.60453 2.26733C5.94981 2.15795 5.28919 2.08744 4.62614 2.05615L4.21573 2.02734L4.21094 10.4825Z" fill="#8094AE"/>
<path d="M16.711 4.23164C16.111 4.27404 14.8846 4.42365 14.4046 4.51245L14.1094 4.56446V13.0229C14.1094 18.3029 14.1286 21.4813 14.1518 21.4813C14.175 21.4813 14.4798 21.4389 14.823 21.3925C15.9988 21.2129 17.1872 21.1281 18.3766 21.1388C19.9738 21.1157 21.5685 21.2716 23.131 21.6037C23.5718 21.6925 23.9422 21.7637 23.9654 21.7637C23.9886 21.7637 24.003 17.9525 24.003 13.3053V4.85166L23.2886 4.70125C22.4254 4.52365 21.6286 4.39645 20.7198 4.30125C19.386 4.20059 18.0475 4.17735 16.711 4.23164ZM22.3046 12.6197C22.3142 12.6437 17.7286 15.7277 16.3502 16.6197L16.219 16.7037V8.53645L19.259 10.5573C20.9278 11.6773 22.299 12.5965 22.3062 12.6157L22.3046 12.6197Z" fill="#8094AE"/>
<path d="M1.94046 4.58245C1.60286 4.64805 1.03566 4.76486 0.674857 4.84966L0.0180574 5.00005L0.00365737 13.5009C-0.00594263 21.5809 -0.00114263 22.0017 0.0740574 21.9809C1.17841 21.6818 2.30068 21.4533 3.43406 21.2969C5.0938 21.0965 6.76959 21.0651 8.43566 21.2032C8.58946 21.2263 8.745 21.2356 8.90046 21.2313C8.26858 20.9405 7.60128 20.734 6.91566 20.6168C5.96475 20.4425 5.00199 20.3407 4.03566 20.3121C3.47966 20.2881 2.97566 20.2648 2.91566 20.2648H2.80686V4.46484L2.68046 4.46965C2.60526 4.46565 2.27726 4.52245 1.94046 4.58245Z" fill="#8094AE"/>
</g>
</g>
</g>
<defs>
<clipPath id="clip0_969_4124">
<rect width="24" height="24" fill="white"/>
</clipPath>
<clipPath id="clip1_969_4124">
<rect width="24" height="24" fill="white"/>
</clipPath>
</defs>
</svg>
